# xmcd
#
# Track frame offsets:
#	150
#	17353
#	34579
#	51776
#	70660
#	89994
#	115084
#	132088
#	153038
#	172600
#
# Disc length: 2520 seconds
#
# Revision: 0
# Processed by: cddbd v1.5.1PL0 Copyright (c) Steve Scherf et al.
# Submitted via: dBpowerAMP V4.0
#
DISCID=6d09d60a
DTITLE=Cody Joe Hodges - All I Can Be Is Me
DYEAR=1900
DGENRE=
TTITLE0=Track01 All I Can Be Is Me
TTITLE1=Track02 Poor Man's Ph.D.
TTITLE2=Track03 Hometown Memories
TTITLE3=Track04 Hurricane
TTITLE4=Track05 The Country Girl In You
TTITLE5=Track06 My New Best Friend
TTITLE6=Track07 She Aint Got The Heart
TTITLE7=Track08 Hell Bound Texas Train
TTITLE8=Track09 Under a Texas Moon
TTITLE9=Track10 Daddy's Dream (acoustical)
EXTD=
EXTT0=
EXTT1=
EXTT2=
EXTT3=
EXTT4=
EXTT5=
EXTT6=
EXTT7=
EXTT8=
EXTT9=
PLAYORDER=
